# MagicaVoxel @ Ephtracy

# material
mtllib turret_Top.mtl
usemtl palette

# normals
vn -1 0 0
vn 1 0 0
vn 0 0 1
vn 0 0 -1
vn 0 -1 0
vn 0 1 0

# texcoords
vt 0.126953 0.5
vt 0.888672 0.5
vt 0.896484 0.5
vt 0.900391 0.5
vt 0.935547 0.5
vt 0.966797 0.5
vt 0.978516 0.5

# verts
v -7 0 3
v -7 0 -3
v -7 1 2
v -7 1 1
v -7 1 -1
v -7 1 -2
v -7 2 1
v -7 2 -1
v -7 3 2
v -7 3 -2
v -7 4 2
v -7 4 1
v -7 4 -1
v -7 4 -2
v -7 5 1
v -7 5 -1
v -7 6 2
v -7 6 -2
v -7 7 3
v -7 7 -3
v -6 1 2
v -6 1 1
v -6 1 -1
v -6 1 -2
v -6 2 1
v -6 2 -1
v -6 3 2
v -6 3 -2
v -6 4 2
v -6 4 1
v -6 4 -1
v -6 4 -2
v -6 5 1
v -6 5 -1
v -6 6 2
v -6 6 -2
v -5 2 5
v -5 2 3
v -5 2 -3
v -5 2 -5
v -5 3 4
v -5 3 3
v -5 3 -3
v -5 3 -4
v -5 5 4
v -5 5 3
v -5 5 -3
v -5 5 -4
v -5 6 5
v -5 6 3
v -5 6 -3
v -5 6 -5
v -3 3 5
v -3 3 4
v -3 3 -4
v -3 3 -5
v -3 5 5
v -3 5 4
v -3 5 -4
v -3 5 -5
v -2 2 4
v -2 2 3
v -2 2 -3
v -2 2 -4
v -2 3 4
v -2 3 3
v -2 3 -3
v -2 3 -4
v -2 5 4
v -2 5 3
v -2 5 -3
v -2 5 -4
v -2 6 4
v -2 6 3
v -2 6 -3
v -2 6 -4
v 0 3 5
v 0 3 4
v 0 3 -4
v 0 3 -5
v 0 5 5
v 0 5 4
v 0 5 -4
v 0 5 -5
v 1 5 4
v 1 5 2
v 1 5 1
v 1 5 -1
v 1 5 -2
v 1 5 -4
v 1 6 4
v 1 6 1
v 1 6 -1
v 1 6 -4
v -4 2 4
v -4 2 3
v -4 2 -3
v -4 2 -4
v -4 3 5
v -4 3 4
v -4 3 3
v -4 3 -3
v -4 3 -4
v -4 3 -5
v -4 5 5
v -4 5 4
v -4 5 3
v -4 5 -3
v -4 5 -4
v -4 5 -5
v -4 6 4
v -4 6 3
v -4 6 -3
v -4 6 -4
v -1 2 4
v -1 2 3
v -1 2 -3
v -1 2 -4
v -1 3 5
v -1 3 4
v -1 3 3
v -1 3 -3
v -1 3 -4
v -1 3 -5
v -1 5 5
v -1 5 4
v -1 5 3
v -1 5 -3
v -1 5 -4
v -1 5 -5
v -1 6 4
v -1 6 3
v -1 6 -3
v -1 6 -4
v 0 0 3
v 0 0 -3
v 0 3 1
v 0 3 -1
v 0 4 2
v 0 4 1
v 0 4 -1
v 0 4 -2
v 0 5 2
v 0 5 1
v 0 5 -1
v 0 5 -2
v 0 6 1
v 0 6 -1
v 0 7 3
v 0 7 -3
v 1 2 5
v 1 2 4
v 1 2 -4
v 1 2 -5
v 1 5 5
v 1 5 4
v 1 5 -4
v 1 5 -5
v 2 5 5
v 2 5 2
v 2 5 1
v 2 5 -1
v 2 5 -2
v 2 5 -5
v 2 6 5
v 2 6 1
v 2 6 -1
v 2 6 -5
v 7 3 1
v 7 3 -1
v 7 4 2
v 7 4 1
v 7 4 -1
v 7 4 -2
v 7 5 2
v 7 5 1
v 7 5 -1
v 7 5 -2
v 7 6 1
v 7 6 -1
v -5 2 5
v -5 6 5
v -4 3 5
v -4 5 5
v -3 3 5
v -3 5 5
v -1 3 5
v -1 5 5
v 0 3 5
v 0 5 5
v 1 2 5
v 1 5 5
v 2 5 5
v 2 6 5
v -7 0 3
v -7 7 3
v -5 2 3
v -5 3 3
v -5 5 3
v -5 6 3
v -4 0 3
v -4 2 3
v -4 3 3
v -4 5 3
v -4 6 3
v -4 7 3
v -3 0 3
v -3 7 3
v -2 2 3
v -2 3 3
v -2 5 3
v -2 6 3
v -1 2 3
v -1 3 3
v -1 5 3
v -1 6 3
v 0 0 3
v 0 7 3
v 0 4 2
v 0 5 2
v 1 5 2
v 2 5 2
v 7 4 2
v 7 5 2
v -7 1 1
v -7 2 1
v -7 4 1
v -7 5 1
v -6 1 1
v -6 2 1
v -6 4 1
v -6 5 1
v 0 3 1
v 0 4 1
v 0 5 1
v 0 6 1
v 1 5 1
v 1 6 1
v 2 5 1
v 2 6 1
v 7 3 1
v 7 4 1
v 7 5 1
v 7 6 1
v 0 4 -1
v 0 5 -1
v 7 4 -1
v 7 5 -1
v -7 1 -2
v -7 3 -2
v -7 4 -2
v -7 6 -2
v -6 1 -2
v -6 3 -2
v -6 4 -2
v -6 6 -2
v -5 3 -4
v -5 5 -4
v -4 2 -4
v -4 3 -4
v -4 5 -4
v -4 6 -4
v -3 3 -4
v -3 5 -4
v -2 2 -4
v -2 3 -4
v -2 5 -4
v -2 6 -4
v -1 2 -4
v -1 3 -4
v -1 5 -4
v -1 6 -4
v 0 3 -4
v 0 5 -4
v 1 2 -4
v 1 5 -4
v 1 6 -4
v -5 3 4
v -5 5 4
v -4 2 4
v -4 3 4
v -4 5 4
v -4 6 4
v -3 3 4
v -3 5 4
v -2 2 4
v -2 3 4
v -2 5 4
v -2 6 4
v -1 2 4
v -1 3 4
v -1 5 4
v -1 6 4
v 0 3 4
v 0 5 4
v 1 2 4
v 1 5 4
v 1 6 4
v -7 1 2
v -7 3 2
v -7 4 2
v -7 6 2
v -6 1 2
v -6 3 2
v -6 4 2
v -6 6 2
v 0 4 1
v 0 5 1
v 7 4 1
v 7 5 1
v -7 1 -1
v -7 2 -1
v -7 4 -1
v -7 5 -1
v -6 1 -1
v -6 2 -1
v -6 4 -1
v -6 5 -1
v 0 3 -1
v 0 4 -1
v 0 5 -1
v 0 6 -1
v 1 5 -1
v 1 6 -1
v 2 5 -1
v 2 6 -1
v 7 3 -1
v 7 4 -1
v 7 5 -1
v 7 6 -1
v 0 4 -2
v 0 5 -2
v 1 5 -2
v 2 5 -2
v 7 4 -2
v 7 5 -2
v -7 0 -3
v -7 7 -3
v -5 2 -3
v -5 3 -3
v -5 5 -3
v -5 6 -3
v -4 0 -3
v -4 2 -3
v -4 3 -3
v -4 5 -3
v -4 6 -3
v -4 7 -3
v -3 0 -3
v -3 7 -3
v -2 2 -3
v -2 3 -3
v -2 5 -3
v -2 6 -3
v -1 2 -3
v -1 3 -3
v -1 5 -3
v -1 6 -3
v 0 0 -3
v 0 7 -3
v -5 2 -5
v -5 6 -5
v -4 3 -5
v -4 5 -5
v -3 3 -5
v -3 5 -5
v -1 3 -5
v -1 5 -5
v 0 3 -5
v 0 5 -5
v 1 2 -5
v 1 5 -5
v 2 5 -5
v 2 6 -5
v -7 0 3
v -4 0 3
v -3 0 3
v 0 0 3
v -6 0 2
v -4 0 2
v -3 0 2
v -1 0 2
v -5 0 1
v -4 0 1
v -5 0 -1
v -4 0 -1
v -6 0 -2
v -4 0 -2
v -3 0 -2
v -1 0 -2
v -7 0 -3
v -4 0 -3
v -3 0 -3
v 0 0 -3
v -5 2 5
v 1 2 5
v -4 2 4
v -2 2 4
v -1 2 4
v 1 2 4
v -5 2 3
v -4 2 3
v -2 2 3
v -1 2 3
v -5 2 -3
v -4 2 -3
v -2 2 -3
v -1 2 -3
v -4 2 -4
v -2 2 -4
v -1 2 -4
v 1 2 -4
v -5 2 -5
v 1 2 -5
v -7 3 2
v -6 3 2
v 0 3 1
v 7 3 1
v 0 3 -1
v 7 3 -1
v -7 3 -2
v -6 3 -2
v 0 4 2
v 7 4 2
v 0 4 1
v 7 4 1
v 0 4 -1
v 7 4 -1
v 0 4 -2
v 7 4 -2
v -4 5 5
v -3 5 5
v -1 5 5
v 0 5 5
v 1 5 5
v 2 5 5
v -5 5 4
v -4 5 4
v -3 5 4
v -2 5 4
v -1 5 4
v 0 5 4
v 1 5 4
v -5 5 3
v -4 5 3
v -2 5 3
v -1 5 3
v 1 5 2
v 2 5 2
v 0 5 1
v 7 5 1
v 0 5 -1
v 7 5 -1
v 1 5 -2
v 2 5 -2
v -5 5 -3
v -4 5 -3
v -2 5 -3
v -1 5 -3
v -5 5 -4
v -4 5 -4
v -3 5 -4
v -2 5 -4
v -1 5 -4
v 0 5 -4
v 1 5 -4
v -4 5 -5
v -3 5 -5
v -1 5 -5
v 0 5 -5
v 1 5 -5
v 2 5 -5
v -7 6 2
v -6 6 2
v -7 6 -2
v -6 6 -2
v -7 1 2
v -6 1 2
v -7 1 1
v -6 1 1
v -7 1 -1
v -6 1 -1
v -7 1 -2
v -6 1 -2
v -7 2 1
v -6 2 1
v -7 2 -1
v -6 2 -1
v -4 3 5
v -3 3 5
v -1 3 5
v 0 3 5
v -5 3 4
v -4 3 4
v -3 3 4
v -2 3 4
v -1 3 4
v 0 3 4
v -5 3 3
v -4 3 3
v -2 3 3
v -1 3 3
v -5 3 -3
v -4 3 -3
v -2 3 -3
v -1 3 -3
v -5 3 -4
v -4 3 -4
v -3 3 -4
v -2 3 -4
v -1 3 -4
v 0 3 -4
v -4 3 -5
v -3 3 -5
v -1 3 -5
v 0 3 -5
v -7 4 2
v -6 4 2
v -7 4 1
v -6 4 1
v 0 4 1
v 7 4 1
v -7 4 -1
v -6 4 -1
v 0 4 -1
v 7 4 -1
v -7 4 -2
v -6 4 -2
v 0 5 2
v 1 5 2
v 2 5 2
v 7 5 2
v -7 5 1
v -6 5 1
v 0 5 1
v 1 5 1
v 2 5 1
v 7 5 1
v -7 5 -1
v -6 5 -1
v 0 5 -1
v 1 5 -1
v 2 5 -1
v 7 5 -1
v 0 5 -2
v 1 5 -2
v 2 5 -2
v 7 5 -2
v -5 6 5
v 2 6 5
v -4 6 4
v -2 6 4
v -1 6 4
v 1 6 4
v -5 6 3
v -4 6 3
v -2 6 3
v -1 6 3
v 0 6 1
v 1 6 1
v 2 6 1
v 7 6 1
v 0 6 -1
v 1 6 -1
v 2 6 -1
v 7 6 -1
v -5 6 -3
v -4 6 -3
v -2 6 -3
v -1 6 -3
v -4 6 -4
v -2 6 -4
v -1 6 -4
v 1 6 -4
v -5 6 -5
v 2 6 -5
v -7 7 3
v -4 7 3
v -3 7 3
v 0 7 3
v -7 7 -3
v -4 7 -3
v -3 7 -3
v 0 7 -3

# faces
f 3/7/1 2/7/1 1/7/1
f 4/7/1 2/7/1 3/7/1
f 5/7/1 2/7/1 4/7/1
f 6/7/1 2/7/1 5/7/1
f 7/7/1 5/7/1 4/7/1
f 8/7/1 5/7/1 7/7/1
f 9/7/1 3/7/1 1/7/1
f 10/7/1 2/7/1 6/7/1
f 11/7/1 9/7/1 1/7/1
f 11/7/1 10/7/1 9/7/1
f 12/7/1 10/7/1 11/7/1
f 13/7/1 10/7/1 12/7/1
f 14/7/1 2/7/1 10/7/1
f 14/7/1 10/7/1 13/7/1
f 15/7/1 13/7/1 12/7/1
f 16/7/1 13/7/1 15/7/1
f 17/7/1 11/7/1 1/7/1
f 18/7/1 2/7/1 14/7/1
f 19/7/1 17/7/1 1/7/1
f 19/7/1 18/7/1 17/7/1
f 20/7/1 2/7/1 18/7/1
f 20/7/1 18/7/1 19/7/1
f 25/3/1 22/3/1 21/3/1
f 26/3/1 24/3/1 23/3/1
f 27/3/1 25/3/1 21/3/1
f 27/3/1 26/3/1 25/3/1
f 28/3/1 24/3/1 26/3/1
f 28/3/1 26/3/1 27/3/1
f 33/3/1 30/3/1 29/3/1
f 34/3/1 32/3/1 31/3/1
f 35/3/1 33/3/1 29/3/1
f 35/3/1 34/3/1 33/3/1
f 36/3/1 32/3/1 34/3/1
f 36/3/1 34/3/1 35/3/1
f 41/5/1 38/5/1 37/5/1
f 42/5/1 38/5/1 41/5/1
f 43/5/1 40/5/1 39/5/1
f 44/5/1 40/5/1 43/5/1
f 45/5/1 41/5/1 37/5/1
f 48/5/1 40/5/1 44/5/1
f 49/5/1 46/5/1 45/5/1
f 49/5/1 45/5/1 37/5/1
f 50/5/1 46/5/1 49/5/1
f 51/5/1 48/5/1 47/5/1
f 52/5/1 40/5/1 48/5/1
f 52/5/1 48/5/1 51/5/1
f 57/5/1 54/5/1 53/5/1
f 58/5/1 54/5/1 57/5/1
f 59/5/1 56/5/1 55/5/1
f 60/5/1 56/5/1 59/5/1
f 65/5/1 62/5/1 61/5/1
f 66/5/1 62/5/1 65/5/1
f 67/5/1 64/5/1 63/5/1
f 68/5/1 64/5/1 67/5/1
f 73/5/1 70/5/1 69/5/1
f 74/5/1 70/5/1 73/5/1
f 75/5/1 72/5/1 71/5/1
f 76/5/1 72/5/1 75/5/1
f 81/5/1 78/5/1 77/5/1
f 82/5/1 78/5/1 81/5/1
f 83/5/1 80/5/1 79/5/1
f 84/5/1 80/5/1 83/5/1
f 91/5/1 86/5/1 85/5/1
f 91/5/1 87/5/1 86/5/1
f 92/5/1 87/5/1 91/5/1
f 93/5/1 90/5/1 89/5/1
f 93/5/1 89/5/1 88/5/1
f 94/5/1 90/5/1 93/5/1
f 95/5/2 96/5/2 100/5/2
f 100/5/2 96/5/2 101/5/2
f 97/5/2 98/5/2 102/5/2
f 102/5/2 98/5/2 103/5/2
f 99/5/2 100/5/2 105/5/2
f 105/5/2 100/5/2 106/5/2
f 103/5/2 104/5/2 109/5/2
f 109/5/2 104/5/2 110/5/2
f 106/5/2 107/5/2 111/5/2
f 111/5/2 107/5/2 112/5/2
f 108/5/2 109/5/2 113/5/2
f 113/5/2 109/5/2 114/5/2
f 115/5/2 116/5/2 120/5/2
f 120/5/2 116/5/2 121/5/2
f 117/5/2 118/5/2 122/5/2
f 122/5/2 118/5/2 123/5/2
f 119/5/2 120/5/2 125/5/2
f 125/5/2 120/5/2 126/5/2
f 123/5/2 124/5/2 129/5/2
f 129/5/2 124/5/2 130/5/2
f 126/5/2 127/5/2 131/5/2
f 131/5/2 127/5/2 132/5/2
f 128/5/2 129/5/2 133/5/2
f 133/5/2 129/5/2 134/5/2
f 135/7/2 136/7/2 137/7/2
f 137/7/2 136/7/2 138/7/2
f 135/7/2 137/7/2 139/7/2
f 139/7/2 137/7/2 140/7/2
f 138/7/2 136/7/2 141/7/2
f 141/7/2 136/7/2 142/7/2
f 135/7/2 139/7/2 143/7/2
f 140/4/2 141/4/2 144/4/2
f 144/4/2 141/4/2 145/4/2
f 142/7/2 136/7/2 146/7/2
f 143/7/2 144/7/2 147/7/2
f 145/7/2 146/7/2 148/7/2
f 143/7/2 147/7/2 149/7/2
f 147/7/2 148/7/2 149/7/2
f 135/7/2 143/7/2 149/7/2
f 148/7/2 146/7/2 150/7/2
f 149/7/2 148/7/2 150/7/2
f 146/7/2 136/7/2 150/7/2
f 151/5/2 152/5/2 155/5/2
f 155/5/2 152/5/2 156/5/2
f 153/5/2 154/5/2 157/5/2
f 157/5/2 154/5/2 158/5/2
f 159/5/2 160/5/2 165/5/2
f 160/5/2 161/5/2 165/5/2
f 165/5/2 161/5/2 166/5/2
f 163/5/2 164/5/2 167/5/2
f 162/5/2 163/5/2 167/5/2
f 167/5/2 164/5/2 168/5/2
f 169/6/2 170/6/2 172/6/2
f 172/6/2 170/6/2 173/6/2
f 171/6/2 172/6/2 175/6/2
f 175/6/2 172/6/2 176/6/2
f 173/6/2 174/6/2 177/6/2
f 177/6/2 174/6/2 178/6/2
f 176/6/2 177/6/2 179/6/2
f 179/6/2 177/6/2 180/6/2
f 183/5/3 182/5/3 181/5/3
f 184/5/3 182/5/3 183/5/3
f 185/5/3 183/5/3 181/5/3
f 186/5/3 182/5/3 184/5/3
f 187/5/3 185/5/3 181/5/3
f 187/5/3 186/5/3 185/5/3
f 188/5/3 182/5/3 186/5/3
f 188/5/3 186/5/3 187/5/3
f 189/5/3 187/5/3 181/5/3
f 190/5/3 182/5/3 188/5/3
f 191/5/3 189/5/3 181/5/3
f 191/5/3 190/5/3 189/5/3
f 192/5/3 182/5/3 190/5/3
f 192/5/3 190/5/3 191/5/3
f 193/5/3 182/5/3 192/5/3
f 194/5/3 182/5/3 193/5/3
f 197/7/3 196/7/3 195/7/3
f 198/7/3 196/7/3 197/7/3
f 199/7/3 196/7/3 198/7/3
f 200/7/3 196/7/3 199/7/3
f 201/7/3 197/7/3 195/7/3
f 202/7/3 197/7/3 201/7/3
f 203/7/3 199/7/3 198/7/3
f 204/7/3 199/7/3 203/7/3
f 205/7/3 196/7/3 200/7/3
f 206/7/3 196/7/3 205/7/3
f 207/2/3 204/2/3 203/2/3
f 207/2/3 202/2/3 201/2/3
f 207/2/3 206/2/3 205/2/3
f 207/2/3 205/2/3 204/2/3
f 207/2/3 203/2/3 202/2/3
f 208/2/3 206/2/3 207/2/3
f 209/7/3 208/7/3 207/7/3
f 210/7/3 208/7/3 209/7/3
f 211/7/3 208/7/3 210/7/3
f 212/7/3 208/7/3 211/7/3
f 213/7/3 209/7/3 207/7/3
f 214/7/3 211/7/3 210/7/3
f 215/7/3 211/7/3 214/7/3
f 216/7/3 208/7/3 212/7/3
f 217/7/3 215/7/3 214/7/3
f 217/7/3 216/7/3 215/7/3
f 217/7/3 213/7/3 207/7/3
f 217/7/3 214/7/3 213/7/3
f 218/7/3 208/7/3 216/7/3
f 218/7/3 216/7/3 217/7/3
f 221/6/3 220/6/3 219/6/3
f 222/6/3 221/6/3 219/6/3
f 223/6/3 222/6/3 219/6/3
f 224/6/3 222/6/3 223/6/3
f 229/7/3 226/7/3 225/7/3
f 230/7/3 226/7/3 229/7/3
f 231/7/3 228/7/3 227/7/3
f 232/7/3 228/7/3 231/7/3
f 237/6/3 236/6/3 235/6/3
f 238/6/3 236/6/3 237/6/3
f 241/6/3 234/6/3 233/6/3
f 242/6/3 234/6/3 241/6/3
f 243/6/3 240/6/3 239/6/3
f 244/6/3 240/6/3 243/6/3
f 247/6/3 246/6/3 245/6/3
f 248/6/3 246/6/3 247/6/3
f 253/7/3 250/7/3 249/7/3
f 254/7/3 250/7/3 253/7/3
f 255/7/3 252/7/3 251/7/3
f 256/7/3 252/7/3 255/7/3
f 260/5/3 258/5/3 257/5/3
f 261/5/3 258/5/3 260/5/3
f 263/5/3 260/5/3 259/5/3
f 264/5/3 262/5/3 261/5/3
f 265/5/3 263/5/3 259/5/3
f 265/5/3 264/5/3 263/5/3
f 266/5/3 264/5/3 265/5/3
f 267/5/3 262/5/3 264/5/3
f 267/5/3 264/5/3 266/5/3
f 268/5/3 262/5/3 267/5/3
f 270/5/3 267/5/3 266/5/3
f 271/5/3 267/5/3 270/5/3
f 273/5/3 270/5/3 269/5/3
f 274/5/3 272/5/3 271/5/3
f 275/5/3 273/5/3 269/5/3
f 275/5/3 274/5/3 273/5/3
f 276/5/3 272/5/3 274/5/3
f 276/5/3 274/5/3 275/5/3
f 277/5/3 272/5/3 276/5/3
f 278/5/4 279/5/4 281/5/4
f 281/5/4 279/5/4 282/5/4
f 280/5/4 281/5/4 284/5/4
f 282/5/4 283/5/4 285/5/4
f 280/5/4 284/5/4 286/5/4
f 284/5/4 285/5/4 286/5/4
f 286/5/4 285/5/4 287/5/4
f 285/5/4 283/5/4 288/5/4
f 287/5/4 285/5/4 288/5/4
f 288/5/4 283/5/4 289/5/4
f 287/5/4 288/5/4 291/5/4
f 291/5/4 288/5/4 292/5/4
f 290/5/4 291/5/4 294/5/4
f 292/5/4 293/5/4 295/5/4
f 290/5/4 294/5/4 296/5/4
f 294/5/4 295/5/4 296/5/4
f 295/5/4 293/5/4 297/5/4
f 296/5/4 295/5/4 297/5/4
f 297/5/4 293/5/4 298/5/4
f 299/7/4 300/7/4 303/7/4
f 303/7/4 300/7/4 304/7/4
f 301/7/4 302/7/4 305/7/4
f 305/7/4 302/7/4 306/7/4
f 307/6/4 308/6/4 309/6/4
f 309/6/4 308/6/4 310/6/4
f 311/7/4 312/7/4 315/7/4
f 315/7/4 312/7/4 316/7/4
f 313/7/4 314/7/4 317/7/4
f 317/7/4 314/7/4 318/7/4
f 321/6/4 322/6/4 323/6/4
f 323/6/4 322/6/4 324/6/4
f 319/6/4 320/6/4 327/6/4
f 327/6/4 320/6/4 328/6/4
f 325/6/4 326/6/4 329/6/4
f 329/6/4 326/6/4 330/6/4
f 331/6/4 332/6/4 333/6/4
f 331/6/4 333/6/4 334/6/4
f 331/6/4 334/6/4 335/6/4
f 335/6/4 334/6/4 336/6/4
f 337/7/4 338/7/4 339/7/4
f 339/7/4 338/7/4 340/7/4
f 340/7/4 338/7/4 341/7/4
f 341/7/4 338/7/4 342/7/4
f 337/7/4 339/7/4 343/7/4
f 343/7/4 339/7/4 344/7/4
f 340/7/4 341/7/4 345/7/4
f 345/7/4 341/7/4 346/7/4
f 342/7/4 338/7/4 347/7/4
f 347/7/4 338/7/4 348/7/4
f 345/2/4 346/2/4 349/2/4
f 343/2/4 344/2/4 349/2/4
f 347/2/4 348/2/4 349/2/4
f 346/2/4 347/2/4 349/2/4
f 344/2/4 345/2/4 349/2/4
f 349/2/4 348/2/4 350/2/4
f 349/7/4 350/7/4 351/7/4
f 351/7/4 350/7/4 352/7/4
f 352/7/4 350/7/4 353/7/4
f 353/7/4 350/7/4 354/7/4
f 349/7/4 351/7/4 355/7/4
f 352/7/4 353/7/4 356/7/4
f 356/7/4 353/7/4 357/7/4
f 354/7/4 350/7/4 358/7/4
f 356/7/4 357/7/4 359/7/4
f 357/7/4 358/7/4 359/7/4
f 349/7/4 355/7/4 359/7/4
f 355/7/4 356/7/4 359/7/4
f 358/7/4 350/7/4 360/7/4
f 359/7/4 358/7/4 360/7/4
f 361/5/4 362/5/4 363/5/4
f 363/5/4 362/5/4 364/5/4
f 361/5/4 363/5/4 365/5/4
f 364/5/4 362/5/4 366/5/4
f 361/5/4 365/5/4 367/5/4
f 365/5/4 366/5/4 367/5/4
f 366/5/4 362/5/4 368/5/4
f 367/5/4 366/5/4 368/5/4
f 361/5/4 367/5/4 369/5/4
f 368/5/4 362/5/4 370/5/4
f 361/5/4 369/5/4 371/5/4
f 369/5/4 370/5/4 371/5/4
f 370/5/4 362/5/4 372/5/4
f 371/5/4 370/5/4 372/5/4
f 372/5/4 362/5/4 373/5/4
f 373/5/4 362/5/4 374/5/4
f 379/7/5 376/7/5 375/7/5
f 380/2/5 377/2/5 376/2/5
f 380/7/5 376/7/5 379/7/5
f 381/7/5 378/7/5 377/7/5
f 381/2/5 377/2/5 380/2/5
f 382/7/5 378/7/5 381/7/5
f 383/3/5 380/3/5 379/3/5
f 384/2/5 381/2/5 380/2/5
f 384/3/5 380/3/5 383/3/5
f 385/3/5 383/3/5 379/3/5
f 385/1/5 384/1/5 383/1/5
f 386/2/5 381/2/5 384/2/5
f 386/1/5 384/1/5 385/1/5
f 387/7/5 379/7/5 375/7/5
f 387/3/5 385/3/5 379/3/5
f 387/3/5 386/3/5 385/3/5
f 388/2/5 381/2/5 386/2/5
f 388/3/5 386/3/5 387/3/5
f 389/3/5 382/3/5 381/3/5
f 389/2/5 381/2/5 388/2/5
f 390/7/5 378/7/5 382/7/5
f 390/3/5 382/3/5 389/3/5
f 391/7/5 387/7/5 375/7/5
f 391/7/5 388/7/5 387/7/5
f 392/2/5 389/2/5 388/2/5
f 392/7/5 388/7/5 391/7/5
f 393/7/5 390/7/5 389/7/5
f 393/2/5 389/2/5 392/2/5
f 394/7/5 378/7/5 390/7/5
f 394/7/5 390/7/5 393/7/5
f 397/5/5 396/5/5 395/5/5
f 398/5/5 396/5/5 397/5/5
f 399/5/5 396/5/5 398/5/5
f 400/5/5 396/5/5 399/5/5
f 401/5/5 397/5/5 395/5/5
f 402/5/5 397/5/5 401/5/5
f 403/5/5 399/5/5 398/5/5
f 404/5/5 399/5/5 403/5/5
f 409/5/5 406/5/5 405/5/5
f 410/5/5 408/5/5 407/5/5
f 411/5/5 408/5/5 410/5/5
f 413/5/5 411/5/5 410/5/5
f 413/5/5 412/5/5 411/5/5
f 413/5/5 410/5/5 409/5/5
f 413/5/5 409/5/5 405/5/5
f 414/5/5 412/5/5 413/5/5
f 419/6/5 418/6/5 417/6/5
f 420/6/5 418/6/5 419/6/5
f 421/7/5 416/7/5 415/7/5
f 422/7/5 416/7/5 421/7/5
f 425/6/5 424/6/5 423/6/5
f 426/6/5 424/6/5 425/6/5
f 429/6/5 428/6/5 427/6/5
f 430/6/5 428/6/5 429/6/5
f 438/5/5 432/5/5 431/5/5
f 439/5/5 432/5/5 438/5/5
f 441/5/5 434/5/5 433/5/5
f 442/5/5 434/5/5 441/5/5
f 443/5/5 436/5/5 435/5/5
f 444/5/5 438/5/5 437/5/5
f 445/5/5 438/5/5 444/5/5
f 446/5/5 441/5/5 440/5/5
f 447/5/5 441/5/5 446/5/5
f 448/5/5 436/5/5 443/5/5
f 449/5/5 436/5/5 448/5/5
f 452/6/5 451/6/5 450/6/5
f 453/6/5 451/6/5 452/6/5
f 460/5/5 457/5/5 456/5/5
f 461/5/5 457/5/5 460/5/5
f 463/5/5 459/5/5 458/5/5
f 464/5/5 459/5/5 463/5/5
f 466/5/5 455/5/5 454/5/5
f 467/5/5 462/5/5 461/5/5
f 468/5/5 462/5/5 467/5/5
f 469/5/5 465/5/5 464/5/5
f 470/5/5 465/5/5 469/5/5
f 471/5/5 455/5/5 466/5/5
f 472/5/5 455/5/5 471/5/5
f 475/7/5 474/7/5 473/7/5
f 476/7/5 474/7/5 475/7/5
f 477/7/6 478/7/6 479/7/6
f 479/7/6 478/7/6 480/7/6
f 481/7/6 482/7/6 483/7/6
f 483/7/6 482/7/6 484/7/6
f 485/7/6 486/7/6 487/7/6
f 487/7/6 486/7/6 488/7/6
f 489/5/6 490/5/6 494/5/6
f 494/5/6 490/5/6 495/5/6
f 491/5/6 492/5/6 497/5/6
f 497/5/6 492/5/6 498/5/6
f 493/5/6 494/5/6 499/5/6
f 499/5/6 494/5/6 500/5/6
f 496/5/6 497/5/6 501/5/6
f 501/5/6 497/5/6 502/5/6
f 503/5/6 504/5/6 507/5/6
f 507/5/6 504/5/6 508/5/6
f 505/5/6 506/5/6 510/5/6
f 510/5/6 506/5/6 511/5/6
f 508/5/6 509/5/6 513/5/6
f 513/5/6 509/5/6 514/5/6
f 511/5/6 512/5/6 515/5/6
f 515/5/6 512/5/6 516/5/6
f 517/7/6 518/7/6 519/7/6
f 519/7/6 518/7/6 520/7/6
f 521/6/6 522/6/6 525/6/6
f 525/6/6 522/6/6 526/6/6
f 523/7/6 524/7/6 527/7/6
f 527/7/6 524/7/6 528/7/6
f 529/6/6 530/6/6 535/6/6
f 535/6/6 530/6/6 536/6/6
f 531/6/6 532/6/6 537/6/6
f 537/6/6 532/6/6 538/6/6
f 533/7/6 534/7/6 539/7/6
f 539/7/6 534/7/6 540/7/6
f 541/6/6 542/6/6 545/6/6
f 545/6/6 542/6/6 546/6/6
f 543/6/6 544/6/6 547/6/6
f 547/6/6 544/6/6 548/6/6
f 549/5/6 550/5/6 551/5/6
f 551/5/6 550/5/6 552/5/6
f 552/5/6 550/5/6 553/5/6
f 553/5/6 550/5/6 554/5/6
f 549/5/6 551/5/6 555/5/6
f 555/5/6 551/5/6 556/5/6
f 552/5/6 553/5/6 557/5/6
f 557/5/6 553/5/6 558/5/6
f 554/5/6 550/5/6 560/5/6
f 560/5/6 550/5/6 561/5/6
f 559/6/6 560/6/6 563/6/6
f 561/6/6 562/6/6 563/6/6
f 560/6/6 561/6/6 563/6/6
f 563/6/6 562/6/6 564/6/6
f 564/6/6 562/6/6 565/6/6
f 565/6/6 562/6/6 566/6/6
f 567/5/6 568/5/6 571/5/6
f 569/5/6 570/5/6 572/5/6
f 572/5/6 570/5/6 573/5/6
f 564/5/6 565/5/6 574/5/6
f 572/5/6 573/5/6 575/5/6
f 573/5/6 574/5/6 575/5/6
f 567/5/6 571/5/6 575/5/6
f 571/5/6 572/5/6 575/5/6
f 574/5/6 565/5/6 576/5/6
f 575/5/6 574/5/6 576/5/6
f 577/7/6 578/7/6 581/7/6
f 578/2/6 579/2/6 582/2/6
f 581/7/6 578/7/6 582/7/6
f 579/7/6 580/7/6 583/7/6
f 582/2/6 579/2/6 583/2/6
f 583/7/6 580/7/6 584/7/6
