# MagicaVoxel @ Ephtracy

# material
mtllib Conveyer Straight Bigger ROad.mtl
usemtl palette

# normals
vn -1 0 0
vn 1 0 0
vn 0 0 1
vn 0 0 -1
vn 0 -1 0
vn 0 1 0

# texcoords
vt 0.0332031 0.5
vt 0.0371094 0.5
vt 0.0410156 0.5
vt 0.0605469 0.5
vt 0.0917969 0.5

# verts
v -5 0 5
v -5 0 4
v -5 0 3
v -5 0 2
v -5 0 1
v -5 0 -0
v -5 0 -1
v -5 0 -2
v -5 0 -3
v -5 0 -4
v -5 0 -5
v -5 1 5
v -5 1 4
v -5 1 3
v -5 1 2
v -5 1 1
v -5 1 -0
v -5 1 -1
v -5 1 -2
v -5 1 -3
v -5 1 -4
v -5 1 -5
v -5 2 5
v -5 2 4
v -5 2 3
v -5 2 2
v -5 2 1
v -5 2 -0
v -5 2 -1
v -5 2 -2
v -5 2 -3
v -5 2 -4
v -5 2 -5
v 5 0 5
v 5 0 4
v 5 0 3
v 5 0 2
v 5 0 1
v 5 0 -0
v 5 0 -1
v 5 0 -2
v 5 0 -3
v 5 0 -4
v 5 0 -5
v 5 1 5
v 5 1 4
v 5 1 3
v 5 1 2
v 5 1 1
v 5 1 -0
v 5 1 -1
v 5 1 -2
v 5 1 -3
v 5 1 -4
v 5 1 -5
v 5 2 5
v 5 2 4
v 5 2 3
v 5 2 2
v 5 2 1
v 5 2 -0
v 5 2 -1
v 5 2 -2
v 5 2 -3
v 5 2 -4
v 5 2 -5
v -5 0 5
v -5 1 5
v -5 2 5
v -4 1 5
v -4 2 5
v 4 1 5
v 4 2 5
v 5 0 5
v 5 1 5
v 5 2 5
v -5 0 -5
v -5 1 -5
v -5 2 -5
v -4 0 -5
v -4 1 -5
v -4 2 -5
v 4 0 -5
v 4 1 -5
v 4 2 -5
v 5 0 -5
v 5 1 -5
v 5 2 -5
v -5 0 5
v 5 0 5
v -5 0 4
v -4 0 4
v 4 0 4
v 5 0 4
v -5 0 3
v -4 0 3
v 4 0 3
v 5 0 3
v -5 0 2
v -4 0 2
v 4 0 2
v 5 0 2
v -5 0 1
v -4 0 1
v 4 0 1
v 5 0 1
v -5 0 -0
v -4 0 -0
v 4 0 -0
v 5 0 -0
v -5 0 -1
v -4 0 -1
v 4 0 -1
v 5 0 -1
v -5 0 -2
v -4 0 -2
v 4 0 -2
v 5 0 -2
v -5 0 -3
v -4 0 -3
v 4 0 -3
v 5 0 -3
v -5 0 -4
v -4 0 -4
v 4 0 -4
v 5 0 -4
v -5 0 -5
v -4 0 -5
v 4 0 -5
v 5 0 -5
v -5 2 5
v -4 2 5
v 4 2 5
v 5 2 5
v -5 2 4
v -4 2 4
v 4 2 4
v 5 2 4
v -5 2 3
v -4 2 3
v 4 2 3
v 5 2 3
v -5 2 2
v -4 2 2
v 4 2 2
v 5 2 2
v -5 2 1
v -4 2 1
v 4 2 1
v 5 2 1
v -5 2 -0
v -4 2 -0
v 4 2 -0
v 5 2 -0
v -5 2 -1
v -4 2 -1
v 4 2 -1
v 5 2 -1
v -5 2 -2
v -4 2 -2
v 4 2 -2
v 5 2 -2
v -5 2 -3
v -4 2 -3
v 4 2 -3
v 5 2 -3
v -5 2 -4
v -4 2 -4
v 4 2 -4
v 5 2 -4
v -5 2 -5
v -4 2 -5
v 4 2 -5
v 5 2 -5

# faces
f 12/3/1 2/3/1 1/3/1
f 13/4/1 3/4/1 2/4/1
f 13/3/1 2/3/1 12/3/1
f 14/3/1 4/3/1 3/3/1
f 14/4/1 3/4/1 13/4/1
f 15/4/1 5/4/1 4/4/1
f 15/3/1 4/3/1 14/3/1
f 16/3/1 6/3/1 5/3/1
f 16/4/1 5/4/1 15/4/1
f 17/4/1 7/4/1 6/4/1
f 17/3/1 6/3/1 16/3/1
f 18/3/1 8/3/1 7/3/1
f 18/4/1 7/4/1 17/4/1
f 19/4/1 9/4/1 8/4/1
f 19/3/1 8/3/1 18/3/1
f 20/3/1 10/3/1 9/3/1
f 20/4/1 9/4/1 19/4/1
f 21/4/1 11/4/1 10/4/1
f 21/3/1 10/3/1 20/3/1
f 22/4/1 11/4/1 21/4/1
f 23/2/1 13/2/1 12/2/1
f 24/1/1 14/1/1 13/1/1
f 24/2/1 13/2/1 23/2/1
f 25/2/1 15/2/1 14/2/1
f 25/1/1 14/1/1 24/1/1
f 26/1/1 16/1/1 15/1/1
f 26/2/1 15/2/1 25/2/1
f 27/2/1 17/2/1 16/2/1
f 27/1/1 16/1/1 26/1/1
f 28/1/1 18/1/1 17/1/1
f 28/2/1 17/2/1 27/2/1
f 29/2/1 19/2/1 18/2/1
f 29/1/1 18/1/1 28/1/1
f 30/1/1 20/1/1 19/1/1
f 30/2/1 19/2/1 29/2/1
f 31/2/1 21/2/1 20/2/1
f 31/1/1 20/1/1 30/1/1
f 32/1/1 22/1/1 21/1/1
f 32/2/1 21/2/1 31/2/1
f 33/1/1 22/1/1 32/1/1
f 34/3/2 35/3/2 45/3/2
f 35/4/2 36/4/2 46/4/2
f 45/3/2 35/3/2 46/3/2
f 36/3/2 37/3/2 47/3/2
f 46/4/2 36/4/2 47/4/2
f 37/4/2 38/4/2 48/4/2
f 47/3/2 37/3/2 48/3/2
f 38/3/2 39/3/2 49/3/2
f 48/4/2 38/4/2 49/4/2
f 39/4/2 40/4/2 50/4/2
f 49/3/2 39/3/2 50/3/2
f 40/3/2 41/3/2 51/3/2
f 50/4/2 40/4/2 51/4/2
f 41/4/2 42/4/2 52/4/2
f 51/3/2 41/3/2 52/3/2
f 42/3/2 43/3/2 53/3/2
f 52/4/2 42/4/2 53/4/2
f 43/4/2 44/4/2 54/4/2
f 53/3/2 43/3/2 54/3/2
f 54/4/2 44/4/2 55/4/2
f 45/2/2 46/2/2 56/2/2
f 46/1/2 47/1/2 57/1/2
f 56/2/2 46/2/2 57/2/2
f 47/2/2 48/2/2 58/2/2
f 57/1/2 47/1/2 58/1/2
f 48/1/2 49/1/2 59/1/2
f 58/2/2 48/2/2 59/2/2
f 49/2/2 50/2/2 60/2/2
f 59/1/2 49/1/2 60/1/2
f 50/1/2 51/1/2 61/1/2
f 60/2/2 50/2/2 61/2/2
f 51/2/2 52/2/2 62/2/2
f 61/1/2 51/1/2 62/1/2
f 52/1/2 53/1/2 63/1/2
f 62/2/2 52/2/2 63/2/2
f 53/2/2 54/2/2 64/2/2
f 63/1/2 53/1/2 64/1/2
f 54/1/2 55/1/2 65/1/2
f 64/2/2 54/2/2 65/2/2
f 65/1/2 55/1/2 66/1/2
f 70/3/3 68/3/3 67/3/3
f 70/2/3 69/2/3 68/2/3
f 71/2/3 69/2/3 70/2/3
f 72/3/3 70/3/3 67/3/3
f 72/5/3 71/5/3 70/5/3
f 73/5/3 71/5/3 72/5/3
f 74/3/3 72/3/3 67/3/3
f 75/2/3 73/2/3 72/2/3
f 75/3/3 72/3/3 74/3/3
f 76/2/3 73/2/3 75/2/3
f 77/4/4 78/4/4 80/4/4
f 78/1/4 79/1/4 81/1/4
f 80/4/4 78/4/4 81/4/4
f 81/1/4 79/1/4 82/1/4
f 80/3/4 81/3/4 83/3/4
f 81/5/4 82/5/4 84/5/4
f 83/3/4 81/3/4 84/3/4
f 84/5/4 82/5/4 85/5/4
f 83/4/4 84/4/4 86/4/4
f 84/1/4 85/1/4 87/1/4
f 86/4/4 84/4/4 87/4/4
f 87/1/4 85/1/4 88/1/4
f 91/3/5 90/3/5 89/3/5
f 92/3/5 90/3/5 91/3/5
f 93/3/5 90/3/5 92/3/5
f 94/3/5 90/3/5 93/3/5
f 95/4/5 92/4/5 91/4/5
f 96/3/5 93/3/5 92/3/5
f 96/4/5 92/4/5 95/4/5
f 97/4/5 94/4/5 93/4/5
f 97/3/5 93/3/5 96/3/5
f 98/4/5 94/4/5 97/4/5
f 99/3/5 96/3/5 95/3/5
f 99/3/5 97/3/5 96/3/5
f 99/3/5 98/3/5 97/3/5
f 100/3/5 98/3/5 99/3/5
f 101/3/5 98/3/5 100/3/5
f 102/3/5 98/3/5 101/3/5
f 103/4/5 100/4/5 99/4/5
f 104/3/5 101/3/5 100/3/5
f 104/4/5 100/4/5 103/4/5
f 105/4/5 102/4/5 101/4/5
f 105/3/5 101/3/5 104/3/5
f 106/4/5 102/4/5 105/4/5
f 107/3/5 104/3/5 103/3/5
f 107/3/5 105/3/5 104/3/5
f 107/3/5 106/3/5 105/3/5
f 108/3/5 106/3/5 107/3/5
f 109/3/5 106/3/5 108/3/5
f 110/3/5 106/3/5 109/3/5
f 111/4/5 108/4/5 107/4/5
f 112/3/5 109/3/5 108/3/5
f 112/4/5 108/4/5 111/4/5
f 113/4/5 110/4/5 109/4/5
f 113/3/5 109/3/5 112/3/5
f 114/4/5 110/4/5 113/4/5
f 115/3/5 112/3/5 111/3/5
f 115/3/5 113/3/5 112/3/5
f 115/3/5 114/3/5 113/3/5
f 116/3/5 114/3/5 115/3/5
f 117/3/5 114/3/5 116/3/5
f 118/3/5 114/3/5 117/3/5
f 119/4/5 116/4/5 115/4/5
f 120/3/5 117/3/5 116/3/5
f 120/4/5 116/4/5 119/4/5
f 121/4/5 118/4/5 117/4/5
f 121/3/5 117/3/5 120/3/5
f 122/4/5 118/4/5 121/4/5
f 123/3/5 120/3/5 119/3/5
f 123/3/5 121/3/5 120/3/5
f 123/3/5 122/3/5 121/3/5
f 124/3/5 122/3/5 123/3/5
f 125/3/5 122/3/5 124/3/5
f 126/3/5 122/3/5 125/3/5
f 127/4/5 124/4/5 123/4/5
f 128/3/5 125/3/5 124/3/5
f 128/4/5 124/4/5 127/4/5
f 129/4/5 126/4/5 125/4/5
f 129/3/5 125/3/5 128/3/5
f 130/4/5 126/4/5 129/4/5
f 131/2/6 132/2/6 135/2/6
f 132/5/6 133/5/6 136/5/6
f 135/2/6 132/2/6 136/2/6
f 133/2/6 134/2/6 137/2/6
f 136/5/6 133/5/6 137/5/6
f 137/2/6 134/2/6 138/2/6
f 135/1/6 136/1/6 139/1/6
f 136/5/6 137/5/6 140/5/6
f 139/1/6 136/1/6 140/1/6
f 137/1/6 138/1/6 141/1/6
f 140/5/6 137/5/6 141/5/6
f 141/1/6 138/1/6 142/1/6
f 139/2/6 140/2/6 143/2/6
f 140/5/6 141/5/6 144/5/6
f 143/2/6 140/2/6 144/2/6
f 141/2/6 142/2/6 145/2/6
f 144/5/6 141/5/6 145/5/6
f 145/2/6 142/2/6 146/2/6
f 143/1/6 144/1/6 147/1/6
f 144/5/6 145/5/6 148/5/6
f 147/1/6 144/1/6 148/1/6
f 145/1/6 146/1/6 149/1/6
f 148/5/6 145/5/6 149/5/6
f 149/1/6 146/1/6 150/1/6
f 147/2/6 148/2/6 151/2/6
f 148/5/6 149/5/6 152/5/6
f 151/2/6 148/2/6 152/2/6
f 149/2/6 150/2/6 153/2/6
f 152/5/6 149/5/6 153/5/6
f 153/2/6 150/2/6 154/2/6
f 151/1/6 152/1/6 155/1/6
f 152/5/6 153/5/6 156/5/6
f 155/1/6 152/1/6 156/1/6
f 153/1/6 154/1/6 157/1/6
f 156/5/6 153/5/6 157/5/6
f 157/1/6 154/1/6 158/1/6
f 155/2/6 156/2/6 159/2/6
f 156/5/6 157/5/6 160/5/6
f 159/2/6 156/2/6 160/2/6
f 157/2/6 158/2/6 161/2/6
f 160/5/6 157/5/6 161/5/6
f 161/2/6 158/2/6 162/2/6
f 159/1/6 160/1/6 163/1/6
f 160/5/6 161/5/6 164/5/6
f 163/1/6 160/1/6 164/1/6
f 161/1/6 162/1/6 165/1/6
f 164/5/6 161/5/6 165/5/6
f 165/1/6 162/1/6 166/1/6
f 163/2/6 164/2/6 167/2/6
f 164/5/6 165/5/6 168/5/6
f 167/2/6 164/2/6 168/2/6
f 165/2/6 166/2/6 169/2/6
f 168/5/6 165/5/6 169/5/6
f 169/2/6 166/2/6 170/2/6
f 167/1/6 168/1/6 171/1/6
f 168/5/6 169/5/6 172/5/6
f 171/1/6 168/1/6 172/1/6
f 169/1/6 170/1/6 173/1/6
f 172/5/6 169/5/6 173/5/6
f 173/1/6 170/1/6 174/1/6
